<?xml version="1.0" standalone="no"?>
<!DOCTYPE svg PUBLIC "-//W3C//DTD SVG 20010904//EN"
 "http://www.w3.org/TR/2001/REC-SVG-20010904/DTD/svg10.dtd">
<svg version="1.0" xmlns="http://www.w3.org/2000/svg"
 width="1000.000000pt" height="169.000000pt" viewBox="0 0 1000.000000 169.000000"
 preserveAspectRatio="xMidYMid meet">

<g transform="translate(0.000000,169.000000) scale(0.100000,-0.100000)"
fill="#000000" stroke="none">
<path d="M1415 1468 c-126 -38 -252 -76 -280 -83 -47 -12 -198 -57 -410 -121
-49 -15 -112 -33 -140 -40 -27 -8 -77 -22 -110 -33 -33 -10 -88 -26 -122 -36
-59 -17 -61 -19 -66 -54 -3 -20 -12 -72 -21 -116 -8 -44 -15 -105 -16 -136 0
-31 -9 -103 -20 -160 -17 -84 -26 -108 -45 -124 -14 -12 -25 -27 -25 -35 0 -8
-9 -28 -20 -45 -11 -16 -15 -32 -10 -35 6 -4 5 -28 -3 -65 -10 -48 -9 -59 1
-63 7 -2 18 -16 23 -31 l11 -26 18 23 c10 12 25 22 34 22 13 0 16 11 16 55 0
39 4 56 16 63 14 8 15 14 5 45 -7 20 -9 41 -6 47 4 6 0 19 -9 29 -16 17 -15
22 2 67 32 81 48 180 35 215 -7 18 -8 41 -3 59 5 16 11 60 15 97 5 56 16 96
31 121 2 2 92 -58 201 -135 110 -76 249 -172 311 -213 61 -41 111 -81 112 -88
0 -7 -13 -45 -30 -84 -16 -38 -30 -79 -30 -89 0 -10 17 -36 38 -57 83 -83 270
-150 567 -204 40 -7 153 -12 260 -13 203 0 275 12 338 57 28 20 28 21 26 117
-2 109 -5 105 96 134 70 21 312 96 360 112 22 7 95 30 163 51 67 21 122 43
122 48 0 6 -80 65 -178 130 -307 207 -621 418 -807 544 -99 67 -189 122 -200
121 -11 -1 -123 -33 -250 -71z"/>
<path d="M3253 1465 c-295 -64 -450 -363 -310 -595 59 -97 147 -141 392 -195
173 -38 182 -41 213 -68 26 -24 29 -72 6 -105 -27 -38 -72 -55 -154 -55 -126
0 -242 45 -344 134 -26 23 -48 40 -50 38 -1 -2 -45 -60 -96 -128 l-92 -123 33
-34 c124 -122 411 -203 620 -176 281 38 449 199 449 431 0 109 -22 165 -93
236 -75 74 -138 100 -365 151 -84 18 -167 42 -183 51 -52 31 -50 96 4 137 24
18 43 21 115 21 110 0 173 -21 259 -87 54 -40 68 -47 78 -36 7 7 49 59 94 116
81 101 83 104 65 123 -29 32 -144 104 -204 127 -127 51 -306 65 -437 37z"/>
<path d="M3950 815 l0 -645 168 2 167 3 3 130 3 130 36 37 c21 21 40 38 43 38
3 0 50 -76 105 -170 l99 -170 188 0 c117 0 188 4 188 10 0 5 -76 141 -169 302
l-169 292 91 98 c51 54 123 132 161 173 l68 75 -198 -1 -199 0 -120 -141 -120
-141 -3 312 -2 311 -170 0 -170 0 0 -645z"/>
<path d="M7322 818 l3 -643 168 -3 167 -2 0 267 c0 283 6 330 45 369 28 28 86
40 123 25 55 -23 57 -31 62 -356 l5 -300 170 0 170 0 0 355 c0 412 -2 422 -86
515 -107 116 -292 129 -438 31 l-51 -35 0 210 0 209 -170 0 -170 0 2 -642z"/>
<path d="M8320 1325 l0 -135 170 0 170 0 0 135 0 135 -170 0 -170 0 0 -135z"/>
<path d="M5870 1245 l0 -125 -60 0 -60 0 0 -116 0 -116 -42 63 c-80 119 -188
178 -343 186 -161 9 -285 -35 -387 -138 -185 -189 -185 -523 1 -710 65 -65
139 -103 236 -124 88 -19 142 -19 230 0 92 20 163 55 228 115 55 50 115 146
101 160 -5 4 -67 25 -137 45 l-128 38 -31 -38 c-55 -66 -142 -84 -219 -44 -31
15 -46 32 -65 72 l-24 52 312 3 311 2 -6 108 c-3 59 -10 119 -16 135 l-11 27
55 0 54 0 3 -248 c3 -243 3 -249 29 -297 47 -93 137 -129 316 -127 62 0 126 3
143 7 l30 7 0 137 0 137 -69 0 c-110 -1 -111 0 -111 211 l0 173 85 0 85 0 0
140 0 140 -85 0 -85 0 0 125 0 125 -170 0 -170 0 0 -125z m-490 -371 c29 -12
46 -27 60 -55 11 -21 20 -43 20 -49 0 -6 -50 -10 -141 -10 l-140 0 7 23 c13
42 38 70 79 88 50 23 64 23 115 3z"/>
<path d="M6700 1115 c-220 -72 -350 -302 -312 -552 48 -309 334 -479 645 -383
119 37 214 125 257 238 l19 51 -142 48 c-78 26 -146 48 -152 48 -5 0 -14 -15
-19 -33 -21 -74 -98 -116 -170 -92 -74 24 -113 114 -104 240 9 117 61 180 151
180 56 0 97 -31 121 -91 10 -24 22 -39 29 -36 7 2 72 24 145 48 150 49 150 49
107 136 -29 58 -112 141 -173 172 -111 57 -274 67 -402 26z"/>
<path d="M9015 1121 c-87 -25 -141 -56 -197 -112 -47 -47 -98 -135 -98 -171 0
-19 16 -23 155 -38 55 -6 116 -13 135 -16 33 -5 36 -3 48 29 18 50 80 74 145
56 38 -10 49 -24 61 -70 l6 -27 -103 -12 c-269 -32 -381 -81 -443 -192 -24
-45 -28 -64 -28 -128 0 -58 5 -84 22 -115 61 -114 157 -165 308 -165 94 0 192
26 238 63 l29 24 48 -33 c62 -41 142 -58 237 -50 41 3 78 8 83 12 5 3 9 59 9
125 0 118 0 119 -23 119 -45 0 -47 12 -47 236 0 244 -9 287 -73 360 -44 51
-109 87 -194 109 -78 21 -241 18 -318 -4z m243 -635 c-18 -53 -55 -78 -122
-84 -73 -6 -106 14 -106 63 0 57 22 70 154 89 79 11 81 11 84 -9 2 -11 -3 -38
-10 -59z"/>
<path d="M8320 645 l0 -475 170 0 170 0 0 475 0 475 -170 0 -170 0 0 -475z"/>
</g>
</svg>
